<svg width="509px" height="157px" viewBox="0 0 509 157" version="1.1" xmlns="http://www.w3.org/2000/svg" xmlns:xlink="http://www.w3.org/1999/xlink">
    <g id="Page-1" stroke="none" stroke-width="1" fill="none" fill-rule="evenodd">

        <polygon id="Fill-88" fill="#00435B" points="0.785 105.679 393.7 105.679 393.7 52.759 0.785 52.759"></polygon>
        <path d="M38.172,32.443 L38.172,52.277 L39.113,52.277 C43.619,52.277 46.878,51.492 48.891,49.921 C50.904,48.351 51.911,45.777 51.911,42.195 C51.911,35.693 48.124,32.443 40.554,32.443 L38.172,32.443 Z M0.777,0.091 L42.382,0.091 C57.376,0.091 68.955,4.238 77.117,12.527 C85.279,20.82 89.36,30.818 89.36,42.527 C89.36,49.988 87.504,57.033 83.792,63.662 C80.081,70.29 74.642,75.443 67.477,79.117 C60.312,82.792 51.652,84.63 41.496,84.63 L0.777,84.63 L0.777,0.091 L0.777,0.091 Z" id="Fill-89" fill="#12A74B"></path>
        <path d="M131.551,50.394 L145.401,50.394 L138.476,29.396 L131.551,50.394 Z M119.862,84.63 L82.413,84.63 L111.774,0.091 L165.123,0.091 L194.484,84.63 L157.09,84.63 L152.215,70.337 L124.737,70.337 L119.862,84.63 L119.862,84.63 Z" id="Fill-90" fill="#12A74B"></path>
        <polygon id="Fill-91" fill="#12A74B" points="198.644 84.63 236.038 84.63 236.038 0.091 198.644 0.091"></polygon>
        <path d="M281.654,17.486 L281.654,33.773 L282.708,33.773 C289.427,33.773 292.789,31.132 292.789,25.851 C292.789,23.636 292.105,21.687 290.74,20.005 C289.373,18.326 287.102,17.486 283.925,17.486 L281.654,17.486 Z M244.259,0.091 L299.492,0.091 C309.057,0.091 316.573,2.501 322.041,7.32 C327.505,12.14 330.238,18.171 330.238,25.408 C330.238,33.386 327.026,39.626 320.598,44.132 C329.721,54.548 335.169,68.046 336.941,84.63 L298.107,84.63 C297.406,73.956 295.807,66.072 293.314,60.974 C290.822,55.876 286.935,53.329 281.654,53.329 L281.654,84.63 L244.259,84.63 L244.259,0.091 L244.259,0.091 Z" id="Fill-92" fill="#12A74B"></path>
        <polyline id="Fill-93" fill="#12A74B" points="393.787 84.63 356.337 84.63 356.337 47.734 324.093 0.091 361.987 0.091 375.061 19.259 388.08 0.091 425.973 0.091 393.787 47.734 393.787 84.63"></polyline>
        <path d="M162.47,79.917 L141.799,79.917 L141.799,101.57 L162.47,101.57 L162.47,94.121 L167.436,95.16 L167.436,98.683 C167.436,101.454 166.955,103.322 165.993,104.285 C165.03,105.246 163.201,105.728 160.507,105.728 L143.82,105.728 C141.125,105.728 139.287,105.236 138.306,104.255 C137.324,103.273 136.833,101.417 136.833,98.683 L136.833,82.978 C136.833,80.244 137.324,78.386 138.306,77.406 C139.287,76.423 141.125,75.933 143.82,75.933 L160.507,75.933 C163.201,75.933 165.03,76.408 165.993,77.355 C166.955,78.304 167.436,80.158 167.436,82.919 L167.436,85.749 L162.47,86.673 L162.47,79.917" id="Fill-94" fill="#FFFFFE"></path>
        <path d="M185.509,94.583 L201.561,94.583 L193.536,79.339 L185.509,94.583 Z M174.711,105.728 L190.995,75.933 L196.307,75.933 L212.878,105.728 L207.393,105.728 L203.583,98.394 L183.431,98.394 L179.62,105.728 L174.711,105.728 L174.711,105.728 Z" id="Fill-95" fill="#FFFFFE"></path>
        <path d="M226.505,81.246 C226.659,82.4 226.736,83.863 226.736,85.632 L226.736,105.728 L222.521,105.728 L222.521,75.933 L226.563,75.933 L241.056,95.333 L254.568,75.933 L259.187,75.933 L259.187,105.728 L254.568,105.728 L254.568,85.632 L254.798,81.246 C254.144,82.63 253.547,83.708 253.008,84.478 L241.633,101.05 L240.363,101.05 L228.526,84.941 C228.064,84.326 227.39,83.093 226.505,81.246" id="Fill-96" fill="#FFFFFE"></path>
        <path d="M296.719,79.802 L279.627,79.802 L279.627,90.136 L296.719,90.136 C297.912,90.136 298.749,89.917 299.231,89.476 C299.711,89.037 299.953,88.224 299.953,87.037 L299.953,82.902 C299.953,81.716 299.702,80.902 299.202,80.462 C298.701,80.021 297.874,79.802 296.719,79.802 Z M274.662,105.728 L274.662,75.933 L298.636,75.933 C300.826,75.933 302.42,76.386 303.419,77.29 C304.418,78.195 304.918,79.667 304.918,81.706 L304.918,88.347 C304.918,90.388 304.418,91.861 303.42,92.765 C302.421,93.669 300.828,94.121 298.639,94.121 L279.627,94.121 L279.627,105.728 L274.662,105.728 L274.662,105.728 Z" id="Fill-97" fill="#FFFFFE"></path>
        <path d="M322.125,75.933 L322.125,101.57 L343.835,101.57 L343.835,75.933 L348.801,75.933 L348.801,98.683 C348.801,101.417 348.319,103.273 347.355,104.255 C346.39,105.236 344.559,105.728 341.86,105.728 L324.158,105.728 C321.458,105.728 319.618,105.236 318.634,104.255 C317.651,103.273 317.159,101.417 317.159,98.683 L317.159,75.933 L322.125,75.933" id="Fill-98" fill="#FFFFFE"></path>
        <path d="M389.682,79.917 L368.607,79.917 L368.607,88.288 L387.373,88.288 C390.067,88.288 391.895,88.79 392.858,89.79 C393.82,90.792 394.301,92.64 394.301,95.333 L394.301,98.683 C394.301,101.417 393.82,103.273 392.858,104.255 C391.895,105.236 390.067,105.728 387.373,105.728 L369.993,105.728 C367.297,105.728 365.459,105.236 364.478,104.255 C363.497,103.273 363.005,101.417 363.005,98.683 L363.005,97.874 L367.625,96.777 L367.625,101.57 L389.797,101.57 L389.797,92.621 L371.089,92.621 C368.433,92.621 366.615,92.128 365.633,91.148 C364.651,90.165 364.161,88.31 364.161,85.576 L364.161,82.978 C364.161,80.204 364.651,78.339 365.633,77.376 C366.615,76.413 368.433,75.933 371.089,75.933 L386.968,75.933 C389.509,75.933 391.308,76.388 392.368,77.298 C393.425,78.21 393.956,79.91 393.956,82.4 L393.956,83.035 L389.682,84.247 L389.682,79.917" id="Fill-99" fill="#FFFFFE"></path>
        <polygon id="Fill-100" fill="#00435B" points="139.356 149.267 143.588 149.267 143.588 125.419 139.356 125.419"></polygon>
        <path d="M159.524,149.267 L159.524,139.191 C159.524,137.704 159.239,136.619 158.67,135.935 C158.1,135.251 157.169,134.91 155.878,134.91 C155.281,134.91 154.644,135.079 153.965,135.415 C153.287,135.751 152.758,136.169 152.378,136.667 L152.378,149.267 L148.309,149.267 L148.309,131.833 L151.239,131.833 L151.988,133.462 C153.095,132.16 154.728,131.509 156.887,131.509 C158.96,131.509 160.596,132.13 161.795,133.372 C162.994,134.615 163.594,136.349 163.594,138.574 L163.594,149.267 L159.524,149.267" id="Fill-101" fill="#00435B"></path>
        <path d="M166.915,148.144 L168.363,144.906 C169.579,145.871 170.952,146.353 172.482,146.353 C174.066,146.353 174.858,145.79 174.858,144.662 C174.858,143.999 174.62,143.456 174.142,143.033 C173.665,142.611 172.737,142.111 171.358,141.535 C168.353,140.288 166.85,138.54 166.85,136.294 C166.85,134.787 167.425,133.611 168.575,132.769 C169.725,131.929 171.196,131.509 172.986,131.509 C174.798,131.509 176.502,131.915 178.098,132.73 L176.926,135.886 C176.036,135.128 174.798,134.747 173.214,134.747 C171.792,134.747 171.082,135.312 171.082,136.441 C171.082,136.886 171.315,137.287 171.782,137.646 C172.248,138.003 173.247,138.484 174.777,139.085 C176.307,139.689 177.408,140.417 178.082,141.275 C178.754,142.132 179.091,143.169 179.091,144.384 C179.091,146.001 178.491,147.273 177.292,148.201 C176.093,149.128 174.462,149.593 172.4,149.593 C171.239,149.593 170.309,149.497 169.609,149.308 C168.909,149.119 168.011,148.73 166.915,148.144" id="Fill-102" fill="#00435B"></path>
        <path d="M186.09,136.099 L186.09,145.263 C186.828,145.861 187.69,146.158 188.678,146.158 C190.555,146.158 191.904,145.71 192.723,144.816 C193.542,143.919 193.952,142.507 193.952,140.576 C193.952,138.513 193.545,137.062 192.731,136.22 C191.917,135.38 190.572,134.958 188.694,134.958 C187.718,134.958 186.849,135.339 186.09,136.099 Z M186.09,148.828 L186.09,156.105 L182.021,156.105 L182.021,131.833 L186.09,131.833 L186.09,133.005 C187.11,132.007 188.363,131.509 189.85,131.509 C195.406,131.509 198.185,134.568 198.185,140.689 C198.185,143.542 197.417,145.742 195.881,147.281 C194.345,148.822 192.248,149.593 189.59,149.593 C188.309,149.593 187.143,149.337 186.09,148.828 L186.09,148.828 Z" id="Fill-103" fill="#00435B"></path>
        <path d="M204.957,125.078 C205.607,125.078 206.164,125.31 206.625,125.771 C207.086,126.232 207.317,126.788 207.317,127.439 C207.317,128.089 207.086,128.646 206.625,129.107 C206.164,129.568 205.607,129.798 204.957,129.798 C204.305,129.798 203.749,129.568 203.288,129.107 C202.827,128.646 202.596,128.089 202.596,127.439 C202.596,126.788 202.827,126.232 203.288,125.771 C203.749,125.31 204.305,125.078 204.957,125.078 Z M202.856,149.267 L202.856,135.171 L200.626,135.171 L200.626,131.833 L206.975,131.833 L206.975,149.267 L202.856,149.267 L202.856,149.267 Z" id="Fill-104" fill="#00435B"></path>
        <path d="M221.788,135.626 C221.061,135.15 220.263,134.91 219.395,134.91 C218.451,134.91 217.613,135.339 216.88,136.197 C216.147,137.054 215.781,138.101 215.781,139.337 L215.781,149.267 L211.712,149.267 L211.712,131.833 L215.781,131.833 L215.781,133.429 C216.92,132.148 218.434,131.509 220.323,131.509 C221.711,131.509 222.775,131.72 223.513,132.144 L221.788,135.626" id="Fill-105" fill="#00435B"></path>
        <path d="M229.21,138.736 L237.773,138.736 C237.491,136.185 236.08,134.91 233.541,134.91 C231.218,134.91 229.775,136.185 229.21,138.736 Z M241.516,141.796 L229.064,141.796 C229.14,143.185 229.618,144.265 230.497,145.035 C231.375,145.806 232.558,146.191 234.045,146.191 C235.901,146.191 237.311,145.708 238.277,144.742 L239.856,147.851 C238.423,149.013 236.286,149.593 233.443,149.593 C230.784,149.593 228.681,148.814 227.135,147.257 C225.588,145.701 224.815,143.527 224.815,140.738 C224.815,137.992 225.665,135.767 227.363,134.064 C229.061,132.361 231.099,131.509 233.475,131.509 C236.003,131.509 238.033,132.263 239.563,133.771 C241.093,135.279 241.858,137.201 241.858,139.533 C241.858,140.033 241.745,140.787 241.516,141.796 L241.516,141.796 Z" id="Fill-106" fill="#00435B"></path>
        <path d="M255.776,135.105 L253.757,135.105 L253.757,131.833 L255.776,131.833 L255.776,128.285 L259.845,126.788 L259.845,131.833 L264.63,131.833 L264.63,135.105 L259.845,135.105 L259.845,142.74 C259.845,143.988 260.041,144.871 260.431,145.386 C260.822,145.9 261.505,146.158 262.482,146.158 C263.458,146.158 264.371,145.892 265.216,145.361 L265.216,149.105 C264.273,149.431 262.927,149.593 261.18,149.593 C259.444,149.593 258.109,149.103 257.175,148.121 C256.242,147.138 255.776,145.742 255.776,143.929 L255.776,135.105" id="Fill-107" fill="#12A74B"></path>
        <path d="M271.467,140.509 C271.467,144.351 272.851,146.273 275.619,146.273 C276.888,146.273 277.895,145.773 278.638,144.775 C279.381,143.777 279.753,142.355 279.753,140.509 C279.753,136.722 278.375,134.829 275.619,134.829 C274.349,134.829 273.339,135.328 272.59,136.326 C271.842,137.326 271.467,138.72 271.467,140.509 Z M267.235,140.509 C267.235,137.851 268.002,135.687 269.539,134.015 C271.074,132.343 273.101,131.509 275.619,131.509 C278.266,131.509 280.323,132.312 281.788,133.917 C283.252,135.523 283.985,137.72 283.985,140.509 C283.985,143.288 283.239,145.497 281.748,147.134 C280.254,148.773 278.212,149.593 275.619,149.593 C272.97,149.593 270.912,148.765 269.441,147.111 C267.97,145.456 267.235,143.255 267.235,140.509 L267.235,140.509 Z" id="Fill-108" fill="#12A74B"></path>
        <path d="M310.958,133.218 L309.216,136.261 C308.261,135.361 306.981,134.91 305.375,134.91 C303.834,134.91 302.616,135.423 301.72,136.449 C300.826,137.474 300.377,138.894 300.377,140.704 C300.377,144.363 302.12,146.191 305.603,146.191 C307.111,146.191 308.441,145.693 309.591,144.693 L311.088,147.9 C309.906,148.638 308.872,149.105 307.988,149.3 C307.103,149.496 306.059,149.593 304.854,149.593 C302.163,149.593 300.039,148.81 298.481,147.242 C296.924,145.673 296.145,143.494 296.145,140.704 C296.145,137.96 296.998,135.74 298.701,134.048 C300.405,132.355 302.727,131.509 305.668,131.509 C307.697,131.509 309.46,132.078 310.958,133.218" id="Fill-109" fill="#12A74B"></path>
        <path d="M324.419,135.626 C323.693,135.15 322.895,134.91 322.027,134.91 C321.083,134.91 320.245,135.339 319.512,136.197 C318.779,137.054 318.413,138.101 318.413,139.337 L318.413,149.267 L314.343,149.267 L314.343,131.833 L318.413,131.833 L318.413,133.429 C319.552,132.148 321.066,131.509 322.955,131.509 C324.343,131.509 325.407,131.72 326.145,132.144 L324.419,135.626" id="Fill-110" fill="#12A74B"></path>
        <path d="M331.842,138.736 L340.405,138.736 C340.123,136.185 338.711,134.91 336.172,134.91 C333.85,134.91 332.407,136.185 331.842,138.736 Z M344.148,141.796 L331.696,141.796 C331.772,143.185 332.25,144.265 333.128,145.035 C334.007,145.806 335.19,146.191 336.677,146.191 C338.533,146.191 339.943,145.708 340.909,144.742 L342.488,147.851 C341.055,149.013 338.917,149.593 336.075,149.593 C333.416,149.593 331.313,148.814 329.767,147.257 C328.22,145.701 327.447,143.527 327.447,140.738 C327.447,137.992 328.296,135.767 329.995,134.064 C331.693,132.361 333.731,131.509 336.107,131.509 C338.635,131.509 340.665,132.263 342.195,133.771 C343.725,135.279 344.49,137.201 344.49,139.533 C344.49,140.033 344.376,140.787 344.148,141.796 L344.148,141.796 Z" id="Fill-111" fill="#12A74B"></path>
        <path d="M357.057,141.064 C356.362,140.923 355.841,140.851 355.495,140.851 C352.282,140.851 350.676,141.904 350.676,144.009 C350.676,145.572 351.582,146.353 353.394,146.353 C355.836,146.353 357.057,145.132 357.057,142.691 L357.057,141.064 Z M357.448,147.525 C357.079,148.134 356.435,148.63 355.519,149.015 C354.601,149.4 353.644,149.593 352.646,149.593 C350.768,149.593 349.292,149.124 348.218,148.185 C347.144,147.246 346.606,145.913 346.606,144.189 C346.606,142.169 347.364,140.591 348.877,139.453 C350.391,138.312 352.542,137.744 355.332,137.744 C355.809,137.744 356.374,137.824 357.024,137.988 C357.024,135.935 355.727,134.91 353.134,134.91 C351.604,134.91 350.323,135.165 349.292,135.675 L348.414,132.517 C349.813,131.845 351.479,131.509 353.411,131.509 C356.069,131.509 358.017,132.113 359.254,133.324 C360.492,134.533 361.11,136.826 361.11,140.201 L361.11,143.929 C361.11,146.251 361.577,147.71 362.51,148.308 C362.173,148.894 361.799,149.253 361.387,149.39 C360.974,149.525 360.502,149.593 359.97,149.593 C359.384,149.593 358.858,149.376 358.392,148.943 C357.925,148.507 357.61,148.037 357.448,147.525 L357.448,147.525 Z" id="Fill-112" fill="#12A74B"></path>
        <path d="M366.125,135.105 L364.106,135.105 L364.106,131.833 L366.125,131.833 L366.125,128.285 L370.194,126.788 L370.194,131.833 L374.979,131.833 L374.979,135.105 L370.194,135.105 L370.194,142.74 C370.194,143.988 370.389,144.871 370.78,145.386 C371.17,145.9 371.854,146.158 372.831,146.158 C373.807,146.158 374.719,145.892 375.565,145.361 L375.565,149.105 C374.622,149.431 373.276,149.593 371.529,149.593 C369.792,149.593 368.458,149.103 367.524,148.121 C366.59,147.138 366.125,145.742 366.125,143.929 L366.125,135.105" id="Fill-113" fill="#12A74B"></path>
        <path d="M381.979,138.736 L390.542,138.736 C390.259,136.185 388.848,134.91 386.309,134.91 C383.987,134.91 382.543,136.185 381.979,138.736 Z M394.285,141.796 L381.833,141.796 C381.909,143.185 382.386,144.265 383.265,145.035 C384.144,145.806 385.327,146.191 386.814,146.191 C388.669,146.191 390.08,145.708 391.045,144.742 L392.625,147.851 C391.192,149.013 389.054,149.593 386.211,149.593 C383.552,149.593 381.45,148.814 379.904,147.257 C378.357,145.701 377.583,143.527 377.583,140.738 C377.583,137.992 378.433,135.767 380.131,134.064 C381.83,132.361 383.868,131.509 386.244,131.509 C388.772,131.509 390.801,132.263 392.332,133.771 C393.862,135.279 394.626,137.201 394.626,139.533 C394.626,140.033 394.513,140.787 394.285,141.796 L394.285,141.796 Z" id="Fill-114" fill="#12A74B"></path>
    </g>
</svg>
